<?xml version="1.0" encoding="UTF-8" standalone="no"?>
<!-- Created with Inkscape (http://www.inkscape.org/) -->

<svg
   xmlns:dc="http://purl.org/dc/elements/1.1/"
   xmlns:cc="http://creativecommons.org/ns#"
   xmlns:rdf="http://www.w3.org/1999/02/22-rdf-syntax-ns#"
   xmlns:svg="http://www.w3.org/2000/svg"
   xmlns="http://www.w3.org/2000/svg"
   xmlns:sodipodi="http://sodipodi.sourceforge.net/DTD/sodipodi-0.dtd"
   xmlns:inkscape="http://www.inkscape.org/namespaces/inkscape"
   width="745"
   height="745"
   id="svg2"
   version="1.1"
   inkscape:version="0.48.4 r9939"
   sodipodi:docname="iphone.svg"
   inkscape:export-filename="C:\Users\nicholas\Google Drive\illustrations\iphone.png"
   inkscape:export-xdpi="90"
   inkscape:export-ydpi="90">
  <defs
     id="defs4" />
  <sodipodi:namedview
     id="base"
     pagecolor="#ffffff"
     bordercolor="#666666"
     borderopacity="1.0"
     inkscape:pageopacity="0.0"
     inkscape:pageshadow="2"
     inkscape:zoom="1"
     inkscape:cx="341.74929"
     inkscape:cy="330.45448"
     inkscape:document-units="px"
     inkscape:current-layer="layer2"
     showgrid="false"
     showguides="false"
     inkscape:window-width="1920"
     inkscape:window-height="1137"
     inkscape:window-x="-8"
     inkscape:window-y="32"
     inkscape:window-maximized="1">
    <inkscape:grid
       type="xygrid"
       id="grid2996"
       empspacing="5"
       visible="true"
       enabled="true"
       snapvisiblegridlinesonly="true" />
  </sodipodi:namedview>
  <metadata
     id="metadata7">
    <rdf:RDF>
      <cc:Work
         rdf:about="">
        <dc:format>image/svg+xml</dc:format>
        <dc:type
           rdf:resource="http://purl.org/dc/dcmitype/StillImage" />
        <dc:title></dc:title>
      </cc:Work>
    </rdf:RDF>
  </metadata>
  <g
     inkscape:label="design"
     inkscape:groupmode="layer"
     id="layer1"
     transform="translate(0,-307.36218)"
     sodipodi:insensitive="true">
    <rect
       style="color:#000000;fill:#ff845e;fill-opacity:1;fill-rule:nonzero;stroke:none;stroke-width:1;marker:none;visibility:visible;display:inline;overflow:visible;enable-background:accumulate"
       id="rect3872"
       width="745"
       height="745"
       x="0"
       y="0"
       transform="translate(0,307.36218)"
       ry="0" />
    <path
       style="fill:#595759;fill-opacity:1;stroke:none"
       d="M 521.4375,82.25 472.6875,650 225.21875,670.40625 268.875,745 745,745 745,473.46875 521.4375,82.25 z"
       transform="translate(0,307.36218)"
       id="path2995"
       inkscape:connector-curvature="0" />
    <rect
       style="color:#000000;fill:#323132;fill-opacity:1;fill-rule:nonzero;stroke:none;stroke-width:1;marker:none;visibility:visible;display:inline;overflow:visible;enable-background:accumulate"
       id="rect2998-6"
       width="310.12045"
       height="629.9375"
       x="217.43977"
       y="367.39343"
       ry="44.968746" />
    <rect
       style="color:#000000;fill:#c6c4c6;fill-opacity:1;fill-rule:nonzero;stroke:none;stroke-width:1;marker:none;visibility:visible;display:inline;overflow:visible;enable-background:accumulate"
       id="rect2998"
       width="300"
       height="620"
       x="222.5"
       y="372.36218"
       ry="39.999996" />
    <rect
       style="color:#000000;fill:#323132;fill-opacity:1;fill-rule:nonzero;stroke:none;stroke-width:1;marker:none;visibility:visible;display:inline;overflow:visible;enable-background:accumulate"
       id="rect3000"
       width="260"
       height="450"
       x="242.5"
       y="452.36218"
       ry="5" />
    <rect
       style="color:#000000;fill:#878187;fill-opacity:1;fill-rule:nonzero;stroke:none;stroke-width:1;marker:none;visibility:visible;display:inline;overflow:visible;enable-background:accumulate"
       id="rect3000-8"
       width="254.03125"
       height="444.03378"
       x="245.48438"
       y="455.34528"
       ry="3.0169041"
       rx="3.0169041" />
    <path
       style="opacity:0.39271611;color:#000000;fill:#ffffff;fill-opacity:1;fill-rule:nonzero;stroke:none;stroke-width:1;marker:none;visibility:visible;display:inline;overflow:visible;enable-background:accumulate"
       d="m 262.5,65 c -22.16,0 -40,17.840002 -40,40 l 0,430.5 300,-428.5 0,-2 c 0,-22.159998 -17.84,-40 -40,-40 l -220,0 z"
       transform="translate(0,307.36218)"
       id="rect2998-5"
       inkscape:connector-curvature="0" />
    <rect
       style="color:#000000;fill:#323132;fill-opacity:1;fill-rule:nonzero;stroke:none;stroke-width:1;marker:none;visibility:visible;display:inline;overflow:visible;enable-background:accumulate"
       id="rect3005"
       width="60"
       height="10"
       x="342.5"
       y="422.36218"
       ry="5" />
    <path
       sodipodi:type="arc"
       style="color:#000000;fill:#323132;fill-opacity:1;fill-rule:nonzero;stroke:none;stroke-width:1;marker:none;visibility:visible;display:inline;overflow:visible;enable-background:accumulate"
       id="path3007"
       sodipodi:cx="315"
       sodipodi:cy="120"
       sodipodi:rx="5"
       sodipodi:ry="5"
       d="m 320,120 a 5,5 0 1 1 -10,0 5,5 0 1 1 10,0 z"
       transform="translate(0,307.36218)" />
    <path
       sodipodi:type="arc"
       style="color:#000000;fill:#323132;fill-opacity:1;fill-rule:nonzero;stroke:none;stroke-width:1;marker:none;visibility:visible;display:inline;overflow:visible;enable-background:accumulate"
       id="path3009"
       sodipodi:cx="375"
       sodipodi:cy="90"
       sodipodi:rx="5"
       sodipodi:ry="5"
       d="m 380,90 a 5,5 0 1 1 -10,0 5,5 0 1 1 10,0 z"
       transform="matrix(1.9899495,0,0,1.9899495,-373.73106,218.26673)" />
    <path
       sodipodi:type="arc"
       style="color:#000000;fill:#323132;fill-opacity:1;fill-rule:nonzero;stroke:none;stroke-width:1;marker:none;visibility:visible;display:inline;overflow:visible;enable-background:accumulate"
       id="path3011"
       sodipodi:cx="365"
       sodipodi:cy="635"
       sodipodi:rx="30"
       sodipodi:ry="30"
       d="m 395,635 a 30,30 0 1 1 -60,0 30,30 0 1 1 60,0 z"
       transform="translate(0,312.36011)" />
    <rect
       style="color:#000000;fill:#c6c4c6;fill-opacity:1;fill-rule:nonzero;stroke:none;stroke-width:1;marker:none;visibility:visible;display:inline;overflow:visible;enable-background:accumulate"
       id="rect3053"
       width="30"
       height="30"
       x="350"
       y="625"
       transform="translate(0,307.36218)"
       ry="5" />
  </g>
  <g
     inkscape:groupmode="layer"
     id="layer2"
     inkscape:label="text">
    <path
       style="font-size:80px;font-style:normal;font-weight:normal;line-height:125%;letter-spacing:0px;word-spacing:0px;fill:#d8d8d8;fill-opacity:1;stroke:none;display:inline;font-family:Sans"
       d="m 269.4375,347.668 0,38.87024 4.96216,0 0,-33.08105 11.23908,33.08105 4.62286,0 11.3027,-32.5297 0,32.5297 4.96215,0 0,-38.87024 -6.93429,0 -9.28815,27.0374 c -0.93661,2.73909 -1.6364,4.8208 -2.07817,6.23451 -0.38879,-1.27234 -0.99669,-3.1844 -1.8449,-5.74677 l -9.20332,-27.52514 -7.74012,0 z m 102.21198,0 0,38.87024 4.77131,0 0,-11.15425 3.37172,-3.24449 9.28814,14.39874 5.89522,0 -11.85405,-17.70684 10.77255,-10.45447 -6.19209,0 -11.28149,11.45114 0,-22.16007 -4.77131,0 z m 45.93178,0 0,22.45695 c -10e-6,4.11748 0.4948,7.37786 1.4844,9.75467 0.9896,2.37682 2.64719,4.17402 4.96216,5.42869 2.31496,1.25467 5.2873,1.88731 8.92765,1.88731 3.74633,0 6.76992,-0.72276 9.07608,-2.16299 2.3061,-1.44022 3.90891,-3.30103 4.79251,-5.59833 0.88354,-2.29729 1.31473,-5.40393 1.31476,-9.30935 l 0,-22.45695 -5.1318,0 0,22.43574 c -3e-5,4.87735 -0.80938,8.16778 -2.41746,9.88191 -1.60814,1.71414 -4.29774,2.56591 -8.07942,2.5659 -2.20895,10e-6 -4.06976,-0.42764 -5.59833,-1.29355 -1.52859,-0.8659 -2.61716,-2.09054 -3.24449,-3.68981 -0.62734,-1.59927 -0.93306,-4.08917 -0.93305,-7.46445 l 0,-22.43574 -5.15301,0 z m -91.90596,10.07276 c -3.4813,3e-5 -6.42183,1.05325 -8.84282,3.13846 -2.89814,2.50937 -4.34719,6.3653 -4.34719,11.57837 0,4.75364 1.21756,8.39397 3.64739,10.92099 2.42983,2.52702 5.60186,3.79584 9.54262,3.79584 2.45632,0 4.73064,-0.56902 6.80706,-1.71767 2.07638,-1.14865 3.66328,-2.77973 4.7501,-4.85613 1.08677,-2.07639 1.63282,-4.92327 1.63285,-8.54594 -3e-5,-4.47087 -1.2335,-7.96099 -3.68981,-10.49688 -2.45636,-2.53583 -5.63016,-3.81701 -9.5002,-3.81704 z m 30.17586,0 c -2.42101,3e-5 -4.66352,0.57788 -6.72224,1.71767 -2.05874,1.13984 -3.59439,2.8522 -4.60166,5.1318 -1.00728,2.27965 -1.50561,4.93391 -1.50561,7.97339 0,4.70063 1.17868,8.31798 3.52016,10.83616 2.34147,2.5182 5.43574,3.77464 9.28814,3.77464 3.07482,0 5.64956,-0.92776 7.76133,-2.75676 2.11171,-1.829 3.43177,-4.35779 3.94428,-7.59168 l -4.68649,-0.59376 c -0.33577,2.38567 -1.1416,4.15281 -2.39625,5.30145 -1.2547,1.14865 -2.81332,1.71767 -4.68649,1.71767 -2.33265,0 -4.21289,-0.85176 -5.66195,-2.5659 -1.44907,-1.71413 -2.1842,-4.46735 -2.18419,-8.24906 -10e-6,-3.72867 0.74573,-6.46245 2.24781,-8.18544 1.50207,-1.72295 3.47067,-2.58708 5.87401,-2.58711 1.59042,3e-5 2.94936,0.48776 4.07151,1.442 1.12213,0.95428 1.89084,2.37153 2.33264,4.26237 l 4.64407,-0.721 c -0.54784,-2.84509 -1.78837,-5.02752 -3.73222,-6.5738 -1.94388,-1.54623 -4.4497,-2.33261 -7.50685,-2.33264 z m 112.79368,0 c -1.83785,3e-5 -3.41769,0.36582 -4.70769,1.0815 -1.29003,0.71572 -2.43161,1.79191 -3.45655,3.22328 l 0,-3.66861 -4.34719,0 0,38.95507 4.77131,0 0,-13.72016 c 0.81288,1.02495 1.85373,1.87318 3.11725,2.5447 1.2635,0.67151 2.67192,1.01788 4.26237,1.01788 2.17358,0 4.2429,-0.61674 6.2133,-1.84491 1.97035,-1.22816 3.48303,-2.99532 4.51684,-5.30145 1.03375,-2.30612 1.54799,-4.90206 1.54802,-7.78253 -3e-5,-2.68605 -0.46302,-5.14769 -1.39958,-7.40083 -0.93662,-2.25309 -2.31853,-4.0008 -4.15634,-5.23783 -1.83786,-1.23698 -3.95844,-1.86608 -6.36174,-1.86611 z m -0.46653,3.75343 c 2.04988,2e-5 3.82586,0.88713 5.30145,2.67193 1.47555,1.78484 2.20538,4.47091 2.2054,8.0582 -2e-5,3.76405 -0.75812,6.54023 -2.26902,8.33389 -1.51093,1.79366 -3.32933,2.69313 -5.44989,2.69313 -2.08525,0 -3.85593,-0.8765 -5.32266,-2.60831 -1.46674,-1.7318 -2.20541,-4.39312 -2.2054,-8.0158 -1e-5,-3.62264 0.78991,-6.39176 2.35385,-8.29147 1.56391,-1.89966 3.35403,-2.84155 5.38627,-2.84157 z m -142.50301,0.21205 c 2.35029,3e-5 4.31359,0.89951 5.89521,2.69314 1.58158,1.79368 2.37503,4.4285 2.37505,7.90977 -2e-5,3.69335 -0.7811,6.42536 -2.35384,8.22785 -1.57279,1.8025 -3.54846,2.71434 -5.91642,2.71434 -2.38567,0 -4.36488,-0.89947 -5.93763,-2.69313 -1.57277,-1.79366 -2.35385,-4.49562 -2.35384,-8.10062 -10e-6,-3.60497 0.78107,-6.29457 2.35384,-8.07941 1.57275,-1.7848 3.55196,-2.67191 5.93763,-2.67194 z m 71.2303,8.3763 0,4.79251 14.65321,0 0,-4.79251 -14.65321,0 z"
       id="text3791"
       inkscape:connector-curvature="0" />
  </g>
</svg>
