<?xml version="1.0" encoding="utf-8"?>
<!-- Generator: Adobe Illustrator 17.0.2, SVG Export Plug-In . SVG Version: 6.00 Build 0)  -->
<!DOCTYPE svg PUBLIC "-//W3C//DTD SVG 1.1//EN" "http://www.w3.org/Graphics/SVG/1.1/DTD/svg11.dtd">
<svg version="1.1" id="Layer_1" xmlns="http://www.w3.org/2000/svg" xmlns:xlink="http://www.w3.org/1999/xlink" x="0px" y="0px"
	 width="125px" height="151.313px" viewBox="12.602 15.254 125 151.313" enable-background="new 12.602 15.254 125 151.313"
	 xml:space="preserve">
<path fill="#EFEFEF" d="M118.256,134.27v28.184v2.848c0,0.571,0.463,1.034,1.035,1.034h17.111l0,0c0.572,0,1.033-0.462,1.033-1.034
	v-2.848V80.15c0-0.05,0-0.098,0-0.146c0-65.849-62.397-64.748-62.401-64.748h-0.003h-0.002c-0.008,0-61.048-1.067-62.37,62.644
	h-0.032v87.402c0,0.571,0.463,1.034,1.035,1.034h37.443C78.23,166.335,102.424,153.827,118.256,134.27z M51.106,147.151h-19.3
	V80.004c0,0,0.003-0.775,0.097-2.104c0.629-8.938,5.499-43.46,43.127-43.46h0.003h0.003c43.221,0,43.221,45.565,43.221,45.565
	C118.256,117.086,88.188,147.151,51.106,147.151z"/>
</svg>
