<?xml version="1.0" encoding="utf-8"?>
<!-- Generator: Adobe Illustrator 16.0.0, SVG Export Plug-In . SVG Version: 6.00 Build 0)  -->
<!DOCTYPE svg PUBLIC "-//W3C//DTD SVG 1.1//EN" "http://www.w3.org/Graphics/SVG/1.1/DTD/svg11.dtd">
<svg version="1.1" id="Layer_1" xmlns="http://www.w3.org/2000/svg" xmlns:xlink="http://www.w3.org/1999/xlink" x="0px" y="0px"
	 width="125px" height="151.313px" viewBox="0 0 125 151.313" enable-background="new 0 0 125 151.313" xml:space="preserve">
<path fill="#00416A" d="M105.725,119.131v28.184v2.848c0,0.572,0.463,1.035,1.035,1.035h17.111l0,0c0.572,0,1.033-0.463,1.033-1.035
	v-2.848V65.01c0-0.05,0-0.098,0-0.146c0-65.85-62.397-64.748-62.401-64.748H62.5h-0.002C62.49,0.117,1.45-0.95,0.128,62.76H0.096
	v87.402c0,0.572,0.463,1.035,1.035,1.035h37.443C65.699,151.196,89.893,138.688,105.725,119.131z M38.575,132.012h-19.3V64.865
	c0,0,0.003-0.775,0.097-2.104c0.629-8.938,5.499-43.46,43.126-43.46h0.004h0.003c43.221,0,43.221,45.565,43.221,45.565
	C105.725,101.948,75.656,132.012,38.575,132.012z"/>
</svg>
